<svg xmlns="http://www.w3.org/2000/svg" viewBox="0 0 256 256">
  <rect width="256" height="256" fill="#4DB33D"/>
  <path d="M100 80C90 80 85 85 85 95C85 105 90 110 100 110C110 110 115 105 115 95C115 85 110 80 100 80Z" fill="white"/>
  <path d="M80 120L80 180C80 190 85 195 95 195L160 195C170 195 175 190 175 180L175 120L80 120Z" fill="white"/>
  <path d="M100 130L100 170M120 130L120 170M140 130L140 170" stroke="#4DB33D" stroke-width="8"/>
  <text x="128" y="230" font-family="Arial, sans-serif" font-size="28" fill="white" text-anchor="middle" font-weight="bold">MongoDB</text>
</svg>
